<mxfile host="app.diagrams.net" modified="2023-09-06T15:11:08.359Z" agent="Mozilla/5.0 (Macintosh; Intel Mac OS X 10_15_7) AppleWebKit/537.36 (KHTML, like Gecko) Chrome/116.0.0.0 Safari/537.36" version="21.7.2" etag="vN4oEheyQwHLC0LP729b" type="github">
  <diagram name="第 1 页" id="v8n3vdoCUCkt7IFpQlKO">
    <mxGraphModel>
      <root>
        <mxCell id="0" />
        <mxCell id="1" parent="0" />
      </root>
    </mxGraphModel>
  </diagram>
</mxfile>
